<svg width="149" height="24" viewBox="0 0 149 24" fill="none" xmlns="http://www.w3.org/2000/svg">
<path fill-rule="evenodd" clip-rule="evenodd" d="M37.2502 1.3999H42.3221L46.6971 5.01354H52.0365L42.4909 22.5999H37.419L33.044 18.9863H27.7046L37.2502 1.3999Z" fill="#293C9D"/>
<path fill-rule="evenodd" clip-rule="evenodd" d="M23.398 1.3999H28.4699L32.8449 5.01354H38.1843L28.6388 22.5999H23.5669L19.1918 18.9863H13.8525L23.398 1.3999Z" fill="#5A6ED5"/>
<path fill-rule="evenodd" clip-rule="evenodd" d="M9.54553 1.3999H14.6174L18.9925 5.01354H24.3318L14.7863 22.5999H9.71439L5.33936 18.9863H0L9.54553 1.3999Z" fill="#EBCF4D"/>
<path d="M75.6603 22.0001L70.1121 15.4308L69.8187 15.0834H75.4926L75.7772 15.4173L80.1324 20.5279L81.4076 22.0001H75.6603ZM60.0361 22.0001V2.02783H75.9958C76.7597 2.02783 77.4492 2.21301 78.0641 2.58338C78.6976 2.95375 79.2007 3.45375 79.5734 4.08338C79.9647 4.71301 80.1603 5.3982 80.1603 6.13894V11.3057C80.1603 12.0464 79.9647 12.7316 79.5734 13.3612C79.2007 13.9908 78.6976 14.4908 78.0641 14.8612C77.4492 15.2316 76.7597 15.4168 75.9958 15.4168L75.7772 15.4173L70.1121 15.4308L64.3684 15.4445V22.0001H60.0361ZM64.3684 11.0834H75.7721V6.33338H64.3684V11.0834Z" fill="#30323A"/>
<path d="M87.1815 22C86.4362 22 85.7468 21.8148 85.1132 21.4444C84.4797 21.0741 83.9766 20.5741 83.6039 19.9444C83.2312 19.3148 83.0449 18.6296 83.0449 17.8889V2H87.3772V17.6667H98.7809V2H103.169V17.8889C103.169 18.6296 102.973 19.3148 102.582 19.9444C102.209 20.5741 101.706 21.0741 101.073 21.4444C100.458 21.8148 99.7778 22 99.0325 22H87.1815Z" fill="#30323A"/>
<path d="M110.328 22C109.583 22 108.893 21.8148 108.26 21.4444C107.626 21.0741 107.123 20.5741 106.75 19.9444C106.378 19.3148 106.191 18.6296 106.191 17.8889V2H110.524V17.6667H121.927V2H126.315V17.8889C126.315 18.6296 126.12 19.3148 125.728 19.9444C125.356 20.5741 124.853 21.0741 124.219 21.4444C123.604 21.8148 122.924 22 122.179 22H110.328Z" fill="#30323A"/>
<path d="M129.449 22V2H148.036V6.33333H133.838V9.83333H145.269V14.1667H133.838V22H129.449Z" fill="#30323A"/>
</svg>
